<?xml version="1.0" encoding="UTF-8"?>
<svg id="_图层_2" data-name="图层 2" xmlns="http://www.w3.org/2000/svg" viewBox="0 0 654.29 160">
  <defs>
    <style>
      .cls-1 {
        fill: #fcfcfd;
        stroke-width: 0px;
      }
    </style>
  </defs>
  <g id="_图层_1-2" data-name="图层 1">
    <path class="cls-1" d="m133.92,32.68L81.96,2.68c-6.19-3.57-13.81-3.57-20,0L10,32.68C3.81,36.25,0,42.85,0,50v60c0,7.15,3.81,13.75,10,17.32l51.96,30c6.19,3.57,13.81,3.57,20,0l51.96-30c6.19-3.57,10-10.18,10-17.32v-60c0-7.15-3.81-13.75-10-17.32Zm-29.91,55.33v12.02c0,6.64-5.38,12.02-12.02,12.02h-8.01c-2.21,0-4.01-1.79-4.01-4.01v-16.03c0-2.21,1.79-4.01,4.01-4.01h4.01c4.52,0,8.17-3.75,8.01-8.31-.15-4.34-3.86-7.72-8.2-7.72h-5.11c-1.64,0-3.11,1-3.72,2.52l-14.01,35.03c-.61,1.52-2.08,2.52-3.72,2.52h-13.31c-4.43,0-8.01-3.59-8.01-8.01v-15.83c-4.43,0-8.01-3.59-8.01-8.01s3.59-8.01,8.01-8.01v-12.22c0-6.64,5.38-12.02,12.02-12.02h8.01c2.21,0,4.01,1.79,4.01,4.01v16.03c0,2.21-1.79,4.01-4.01,4.01h-4.01c-4.52,0-8.17,3.75-8.01,8.31.15,4.34,3.86,7.72,8.2,7.72h5.11c1.64,0,3.11-1,3.72-2.52l14.01-35.03c.61-1.52,2.08-2.52,3.72-2.52h13.31c4.43,0,8.01,3.59,8.01,8.01v16.03c4.43,0,8.01,3.59,8.01,8.01s-3.59,8.01-8.01,8.01Z"/>
    <g>
      <path class="cls-1" d="m236.98,113.23c0,2.94-1.05,5.45-3.15,7.55-2.1,2.1-4.61,3.15-7.55,3.15-3.69,0-6.63-1.55-8.81-4.66l-11.45-16.36h-10.95v10.44c0,2.94-1.05,5.45-3.15,7.55s-4.61,3.15-7.55,3.15-5.47-1.05-7.61-3.15c-2.14-2.1-3.21-4.61-3.21-7.55v-63.91c0-2.93,1.05-5.45,3.15-7.55s4.61-3.15,7.55-3.15,5.45,1.05,7.55,3.15c2.1,2.1,3.15,4.61,3.15,7.55v32.08h9.94c4.44,0,7.46-1.84,9.06-5.54,1.01-3.35,2.05-6.71,3.15-10.06,1.59-3.69,4.61-5.54,9.06-5.54,2.94,0,5.47,1.05,7.61,3.15,2.14,2.1,3.21,4.61,3.21,7.55,0,9.39-3.57,17.28-10.69,23.65l8.68,12.33c1.34,1.93,2.01,3.98,2.01,6.16Z"/>
      <path class="cls-1" d="m306.93,113.36c0,2.94-1.05,5.45-3.15,7.55s-4.61,3.15-7.55,3.15h-21.26c-8.72,0-16.23-3.12-22.52-9.37-6.29-6.25-9.44-13.78-9.44-22.58s3.12-16.31,9.37-22.52c6.25-6.21,13.73-9.31,22.46-9.31s16.36,3.1,22.65,9.31c6.29,6.21,9.44,13.71,9.44,22.52v21.26Zm-21.39-21.26c0-2.85-1.03-5.3-3.08-7.36-2.06-2.05-4.55-3.08-7.49-3.08s-5.43,1.03-7.49,3.08c-2.06,2.06-3.08,4.51-3.08,7.36s1.03,5.43,3.08,7.49c2.05,2.06,4.51,3.08,7.36,3.08h10.57l.13-10.57Z"/>
      <path class="cls-1" d="m419.53,113.36c0,2.94-1.05,5.45-3.15,7.55-2.1,2.1-4.61,3.15-7.55,3.15s-5.45-1.05-7.55-3.15c-2.1-2.1-3.15-4.61-3.15-7.55v-21.26c0-2.94-1.03-5.43-3.08-7.49-2.06-2.05-4.55-3.08-7.49-3.08s-5.31,1.03-7.36,3.08c-2.06,2.06-3.08,4.55-3.08,7.49v21.14c0,2.94-1.07,5.47-3.21,7.61-2.14,2.14-4.68,3.21-7.61,3.21s-5.45-1.05-7.55-3.15c-2.1-2.1-3.15-4.61-3.15-7.55v-21.26c0-2.94-1.03-5.43-3.08-7.49-2.06-2.05-4.51-3.08-7.36-3.08s-5.33,1.03-7.42,3.08c-2.1,2.06-3.15,4.55-3.15,7.49v21.14c0,2.94-1.05,5.45-3.15,7.55s-4.61,3.15-7.55,3.15-5.47-1.05-7.61-3.15c-2.14-2.1-3.21-4.61-3.21-7.55v-21.14c0-8.81,3.12-16.33,9.37-22.58,6.25-6.25,13.78-9.37,22.58-9.37,8.05,0,15.14,2.73,21.26,8.18,5.95-5.45,13-8.18,21.14-8.18,8.81,0,16.36,3.12,22.65,9.37,6.29,6.25,9.44,13.78,9.44,22.58v21.26Z"/>
      <path class="cls-1" d="m446.83,49.32c0,2.94-1.05,5.45-3.15,7.55s-4.61,3.15-7.55,3.15-5.47-1.05-7.61-3.15c-2.14-2.1-3.21-4.61-3.21-7.55s1.05-5.45,3.15-7.55c2.1-2.09,4.61-3.14,7.55-3.14s5.47,1.05,7.61,3.14c2.14,2.1,3.21,4.61,3.21,7.55Zm0,64.04c0,2.94-1.05,5.45-3.15,7.55s-4.61,3.15-7.55,3.15-5.47-1.05-7.61-3.15c-2.14-2.1-3.21-4.61-3.21-7.55v-34.72c0-2.94,1.05-5.45,3.15-7.55,2.1-2.1,4.61-3.15,7.55-3.15s5.47,1.05,7.61,3.15c2.14,2.1,3.21,4.61,3.21,7.55v34.72Z"/>
      <path class="cls-1" d="m515.27,70.71c0,8.72-3.1,16.21-9.31,22.46-6.21,6.25-13.71,9.37-22.52,9.37h-10.57v10.82c0,2.94-1.05,5.45-3.15,7.55-2.1,2.1-4.61,3.15-7.55,3.15s-5.47-1.05-7.61-3.15c-2.14-2.1-3.21-4.61-3.21-7.55v-42.65c0-8.81,3.12-16.33,9.37-22.58,6.25-6.25,13.78-9.37,22.58-9.37s16.33,3.13,22.58,9.37c6.25,6.25,9.37,13.78,9.37,22.58Zm-21.39,0c0-2.93-1.03-5.43-3.08-7.49-2.06-2.05-4.51-3.08-7.36-3.08s-5.45,1.05-7.55,3.14c-2.1,2.1-3.15,4.57-3.15,7.42v10.44h10.57c2.93,0,5.41-1.03,7.42-3.08,2.01-2.05,3.02-4.51,3.02-7.36h.13Z"/>
      <path class="cls-1" d="m584.09,113.36c0,2.94-1.05,5.45-3.15,7.55s-4.61,3.15-7.55,3.15h-21.26c-8.72,0-16.23-3.12-22.52-9.37-6.29-6.25-9.44-13.78-9.44-22.58s3.12-16.31,9.37-22.52c6.25-6.21,13.73-9.31,22.46-9.31s16.36,3.1,22.65,9.31c6.29,6.21,9.44,13.71,9.44,22.52v21.26Zm-21.39-21.26c0-2.85-1.03-5.3-3.08-7.36-2.06-2.05-4.55-3.08-7.49-3.08s-5.43,1.03-7.49,3.08c-2.06,2.06-3.08,4.51-3.08,7.36s1.03,5.43,3.08,7.49c2.05,2.06,4.51,3.08,7.36,3.08h10.57l.13-10.57Z"/>
      <path class="cls-1" d="m654.29,93.98c0,6.71-1.93,12.83-5.79,18.37-3.86,5.54-8.98,9.44-15.35,11.7v10.69c0,2.94-1.05,5.45-3.15,7.55-2.1,2.1-4.61,3.15-7.55,3.15s-5.45-1.05-7.55-3.15-3.15-4.61-3.15-7.55v-10.69c-6.38-2.26-11.53-6.17-15.47-11.7-3.94-5.54-5.91-11.66-5.91-18.37v-23.15c0-2.93,1.05-5.45,3.15-7.55,2.1-2.09,4.61-3.14,7.55-3.14s5.45,1.05,7.55,3.14c2.1,2.1,3.15,4.61,3.15,7.55v23.15c0,2.85,1.05,5.33,3.15,7.42,2.1,2.1,4.57,3.15,7.42,3.15s5.3-1.03,7.36-3.08c2.05-2.05,3.08-4.55,3.08-7.49v-23.15c0-2.93,1.05-5.45,3.15-7.55,2.1-2.09,4.61-3.14,7.55-3.14s5.47,1.05,7.61,3.14c2.14,2.1,3.21,4.61,3.21,7.55v23.15Z"/>
    </g>
  </g>
</svg>