<?xml version="1.0" encoding="UTF-8"?>
<svg id="_图层_2" data-name="图层 2" xmlns="http://www.w3.org/2000/svg" viewBox="0 0 143.92 160">
  <defs>
    <style>
      .cls-1 {
        fill: #fcfcfd;
        stroke-width: 0px;
      }
    </style>
  </defs>
  <g id="_图层_1-2" data-name="图层 1">
    <path class="cls-1" d="m133.92,32.68L81.96,2.68c-6.19-3.57-13.81-3.57-20,0L10,32.68C3.81,36.25,0,42.85,0,50v60c0,7.15,3.81,13.75,10,17.32l51.96,30c6.19,3.57,13.81,3.57,20,0l51.96-30c6.19-3.57,10-10.18,10-17.32v-60c0-7.15-3.81-13.75-10-17.32Zm-29.91,55.33v12.02c0,6.64-5.38,12.02-12.02,12.02h-8.01c-2.21,0-4.01-1.79-4.01-4.01v-16.03c0-2.21,1.79-4.01,4.01-4.01h4.01c4.52,0,8.17-3.75,8.01-8.31-.15-4.34-3.86-7.72-8.2-7.72h-5.11c-1.64,0-3.11,1-3.72,2.52l-14.01,35.03c-.61,1.52-2.08,2.52-3.72,2.52h-13.31c-4.43,0-8.01-3.59-8.01-8.01v-15.83c-4.43,0-8.01-3.59-8.01-8.01s3.59-8.01,8.01-8.01v-12.22c0-6.64,5.38-12.02,12.02-12.02h8.01c2.21,0,4.01,1.79,4.01,4.01v16.03c0,2.21-1.79,4.01-4.01,4.01h-4.01c-4.52,0-8.17,3.75-8.01,8.31.15,4.34,3.86,7.72,8.2,7.72h5.11c1.64,0,3.11-1,3.72-2.52l14.01-35.03c.61-1.52,2.08-2.52,3.72-2.52h13.31c4.43,0,8.01,3.59,8.01,8.01v16.03c4.43,0,8.01,3.59,8.01,8.01s-3.59,8.01-8.01,8.01Z"/>
  </g>
</svg>