<svg width="26" height="26" viewBox="0 0 26 26" fill="none" xmlns="http://www.w3.org/2000/svg"><script xmlns=""/>
<g id="TRX26">
<path id="Vector" d="M0 13C0 16.4478 1.36964 19.7544 3.80761 22.1924C6.24558 24.6304 9.55219 26 13 26C16.4478 26 19.7544 24.6304 22.1924 22.1924C24.6304 19.7544 26 16.4478 26 13C26 9.55219 24.6304 6.24558 22.1924 3.80761C19.7544 1.36964 16.4478 0 13 0C9.55219 0 6.24558 1.36964 3.80761 3.80761C1.36964 6.24558 0 9.55219 0 13Z" fill="#D80917"/>
<path id="Vector_2" d="M11.9624 21.0227C11.938 21.0227 11.9127 21.0213 11.8883 21.0175C11.7898 21.004 11.697 20.9636 11.6199 20.9009C11.5429 20.8381 11.4845 20.7553 11.4514 20.6616L6.16946 5.69986C6.10235 5.50929 6.1468 5.29723 6.28479 5.14965C6.42278 5.00208 6.63223 4.94281 6.82599 4.99772L17.4668 7.9652C17.5357 7.98438 17.6013 8.01749 17.6574 8.06252L19.6581 9.65157C19.8835 9.83023 19.93 10.1541 19.7638 10.3883L12.4045 20.7935C12.3546 20.8643 12.2883 20.9221 12.2114 20.962C12.1344 21.0019 12.049 21.0227 11.9624 21.0227ZM7.53802 6.32096L12.1242 19.3137L18.5829 10.1814L17.07 8.97964L7.53802 6.32096Z" fill="white"/>
<path id="Vector_3" d="M11.9635 21.0226C11.9435 21.0226 11.9243 21.0214 11.9042 21.0194C11.6071 20.9871 11.3921 20.7199 11.424 20.4227L12.2206 13.0471C12.2523 12.7487 12.5285 12.5393 12.8173 12.5669C13.1145 12.5991 13.3295 12.8664 13.2975 13.1636L12.5009 20.5392C12.4713 20.8166 12.2366 21.0226 11.9635 21.0226Z" fill="white"/>
<path id="Vector_4" d="M12.7584 13.6472C12.621 13.6472 12.4833 13.5955 12.3776 13.4912C12.165 13.2806 12.1629 12.9378 12.3732 12.7249L16.9353 8.10615C17.1459 7.8935 17.4887 7.89147 17.7014 8.1015C17.914 8.31212 17.916 8.65491 17.7057 8.86785L13.1434 13.4863C13.0931 13.5373 13.0332 13.5778 12.9671 13.6054C12.901 13.633 12.8301 13.6472 12.7584 13.6472Z" fill="white"/>
<path id="Vector_5" d="M12.7584 13.6462C12.5541 13.6462 12.3583 13.5298 12.2665 13.3316C12.1416 13.0603 12.2601 12.7381 12.5309 12.6126L19.0934 9.58327C19.3664 9.45778 19.6868 9.5763 19.8126 9.84821C19.9376 10.1195 19.819 10.4417 19.5483 10.5672L12.9858 13.5966C12.9144 13.6292 12.8369 13.6462 12.7584 13.6462Z" fill="white"/>
<path id="Vector_6" d="M12.8371 13.7411C12.6785 13.7411 12.5219 13.6717 12.415 13.538L6.25781 5.85801C6.07044 5.62474 6.1082 5.28398 6.34206 5.09689C6.57475 4.91068 6.91696 4.94816 7.10317 5.18114L13.2592 12.8612C13.4466 13.0944 13.4094 13.4352 13.1756 13.6223C13.0796 13.6993 12.9602 13.7413 12.8371 13.7411Z" fill="white"/>
</g>
</svg>